<svg width="18" height="18" viewBox="0 0 18 18" fill="none" xmlns="http://www.w3.org/2000/svg">
<path d="M2 2H8C8.55 2 9 1.55 9 1C9 0.45 8.55 0 8 0H2C0.9 0 0 0.9 0 2V16C0 17.1 0.9 18 2 18H8C8.55 18 9 17.55 9 17C9 16.45 8.55 16 8 16H2V2Z" fill="white"/>
<path d="M17.65 8.94154L14.86 6.15154C14.7905 6.08009 14.7012 6.03102 14.6036 6.01061C14.506 5.9902 14.4045 5.99937 14.3121 6.03696C14.2198 6.07454 14.1408 6.13883 14.0851 6.2216C14.0295 6.30436 13.9999 6.40183 14 6.50154V8.29154H7C6.45 8.29154 6 8.74154 6 9.29154C6 9.84154 6.45 10.2915 7 10.2915H14V12.0815C14 12.5315 14.54 12.7515 14.85 12.4315L17.64 9.64154C17.84 9.45154 17.84 9.13154 17.65 8.94154Z" fill="white"/>
</svg>
